<svg width="2174" height="1709" viewBox="0 0 2174 1709" fill="none" xmlns="http://www.w3.org/2000/svg">
<path fill-rule="evenodd" clip-rule="evenodd" d="M524.94 1693.63C486.174 1503.33 417.824 1344.96 335.037 1198.19C273.63 1089.32 202.493 988.83 136.673 883.25C114.701 848.007 95.739 810.774 74.626 774.197C32.41 701.06 -1.81797 616.262 0.357023 506.265C2.48202 398.792 33.565 312.581 78.387 242.093C152.106 126.158 275.588 31.1041 441.271 6.12404C576.737 -14.3 703.746 20.206 793.814 72.872C867.41 115.91 924.41 173.399 967.73 241.152C1012.95 311.868 1044.09 395.412 1046.7 504.384C1048.04 560.214 1038.9 611.916 1026.02 654.802C1012.99 698.211 992.03 734.497 973.38 773.256C936.97 848.915 891.33 918.24 845.52 987.6C709.083 1194.21 581.024 1404.91 524.94 1693.63V1693.63Z" fill="#2BA52E"/>
<path d="M523.546 688.38C624.798 688.38 706.879 606.299 706.879 505.047C706.879 403.795 624.798 321.714 523.546 321.714C422.294 321.714 340.213 403.795 340.213 505.047C340.213 606.299 422.294 688.38 523.546 688.38Z" fill="#535353"/>
<g opacity="0.25" filter="url(#filter0_f_361_93)">
<path fill-rule="evenodd" clip-rule="evenodd" d="M525.379 1692.96C656.983 1572.09 736.693 1456.98 794.52 1342.47C837.41 1257.52 865.06 1173.3 901.47 1088.41C913.63 1060.07 929.98 1031.84 943.99 1003.11C972.01 945.656 1016.65 884.966 1113.02 825.006C1207.18 766.416 1306.97 731.25 1404.6 710.309C1565.16 675.867 1748.88 673.01 1907.19 725.902C2036.64 769.146 2111.87 839.366 2140.97 904.766C2164.75 958.206 2162.4 1012.95 2139.93 1067.87C2116.47 1125.19 2070.36 1183.94 1978.82 1245.26C1931.92 1276.68 1879.92 1301.6 1832.41 1320.13C1784.32 1338.89 1735.81 1350.52 1687.08 1364.45C1591.96 1391.64 1494.66 1411.6 1397.19 1431.53C1106.87 1490.87 819.94 1555.85 525.379 1692.96V1692.96Z" fill="#535353"/>
</g>
<defs>
<filter id="filter0_f_361_93" x="509.979" y="669.78" width="1663.24" height="1038.58" filterUnits="userSpaceOnUse" color-interpolation-filters="sRGB">
<feFlood flood-opacity="0" result="BackgroundImageFix"/>
<feBlend mode="normal" in="SourceGraphic" in2="BackgroundImageFix" result="shape"/>
<feGaussianBlur stdDeviation="7.7" result="effect1_foregroundBlur_361_93"/>
</filter>
</defs>
</svg>
